<svg xmlns="http://www.w3.org/2000/svg" width="1024" height="1024" viewBox="0 0 1024 1024">
<g transform="translate(512 512) scale(1.300) translate(-512 -512)">
<g transform="rotate(-22 512 512)">
<path d="M244,677 L228.0,630.0 L248.0,594.0 L232.0,556.0 L252.0,520.0 L230.0,482.0 L250.0,446.0 L228.0,410.0 L246.0,380.0 L232.0,347.0 L792,347 L792,677 Z M746,512 A30,30 0 1 0 745.9,512 Z" fill="#dcd0b8" fill-rule="evenodd"/>
<path d="M640,347 L792,347 L792,677 L640,677 Z M746,512 A30,30 0 1 0 745.9,512 Z" fill="#c4b498" fill-rule="evenodd"/>
<circle cx="640" cy="366" r="6" fill="#786c60"/>
<circle cx="640" cy="390" r="6" fill="#786c60"/>
<circle cx="640" cy="415" r="6" fill="#786c60"/>
<circle cx="640" cy="439" r="6" fill="#786c60"/>
<circle cx="640" cy="464" r="6" fill="#786c60"/>
<circle cx="640" cy="488" r="6" fill="#786c60"/>
<circle cx="640" cy="513" r="6" fill="#786c60"/>
<circle cx="640" cy="537" r="6" fill="#786c60"/>
<circle cx="640" cy="562" r="6" fill="#786c60"/>
<circle cx="640" cy="586" r="6" fill="#786c60"/>
<circle cx="640" cy="611" r="6" fill="#786c60"/>
<circle cx="640" cy="635" r="6" fill="#786c60"/>
<circle cx="640" cy="660" r="6" fill="#786c60"/>
<rect x="274" y="392" width="150" height="124" rx="6" fill="none" stroke="#786c60" stroke-width="6"/>
<path d="M302,418 L314,410 L314,490" fill="none" stroke="#786c60" stroke-width="13" stroke-linecap="round" stroke-linejoin="round"/>
<path d="M392,490 L392,410 L346,466 L404,466" fill="none" stroke="#786c60" stroke-width="13" stroke-linecap="round" stroke-linejoin="round"/>
<line x1="450" y1="424" x2="480" y2="424" stroke="#786c60" stroke-width="7" stroke-linecap="round"/>
<line x1="494" y1="424" x2="547" y2="424" stroke="#786c60" stroke-width="7" stroke-linecap="round"/>
<line x1="561" y1="424" x2="603" y2="424" stroke="#786c60" stroke-width="7" stroke-linecap="round"/>
<line x1="450" y1="458" x2="480" y2="458" stroke="#786c60" stroke-width="7" stroke-linecap="round"/>
<line x1="494" y1="458" x2="547" y2="458" stroke="#786c60" stroke-width="7" stroke-linecap="round"/>
<line x1="561" y1="458" x2="590" y2="458" stroke="#786c60" stroke-width="7" stroke-linecap="round"/>
<line x1="450" y1="492" x2="480" y2="492" stroke="#786c60" stroke-width="7" stroke-linecap="round"/>
<line x1="494" y1="492" x2="547" y2="492" stroke="#786c60" stroke-width="7" stroke-linecap="round"/>
<line x1="561" y1="492" x2="603" y2="492" stroke="#786c60" stroke-width="7" stroke-linecap="round"/>
<line x1="276" y1="560" x2="306" y2="560" stroke="#786c60" stroke-width="7" stroke-linecap="round"/>
<line x1="320" y1="560" x2="373" y2="560" stroke="#786c60" stroke-width="7" stroke-linecap="round"/>
<line x1="387" y1="560" x2="429" y2="560" stroke="#786c60" stroke-width="7" stroke-linecap="round"/>
<line x1="443" y1="560" x2="474" y2="560" stroke="#786c60" stroke-width="7" stroke-linecap="round"/>
<line x1="488" y1="560" x2="542" y2="560" stroke="#786c60" stroke-width="7" stroke-linecap="round"/>
<line x1="556" y1="560" x2="599" y2="560" stroke="#786c60" stroke-width="7" stroke-linecap="round"/>
<line x1="276" y1="600" x2="306" y2="600" stroke="#786c60" stroke-width="7" stroke-linecap="round"/>
<line x1="320" y1="600" x2="373" y2="600" stroke="#786c60" stroke-width="7" stroke-linecap="round"/>
<line x1="387" y1="600" x2="429" y2="600" stroke="#786c60" stroke-width="7" stroke-linecap="round"/>
<line x1="443" y1="600" x2="474" y2="600" stroke="#786c60" stroke-width="7" stroke-linecap="round"/>
<line x1="488" y1="600" x2="542" y2="600" stroke="#786c60" stroke-width="7" stroke-linecap="round"/>
<line x1="556" y1="600" x2="560" y2="600" stroke="#786c60" stroke-width="7" stroke-linecap="round"/>
<line x1="276" y1="636" x2="306" y2="636" stroke="#786c60" stroke-width="7" stroke-linecap="round"/>
<line x1="320" y1="636" x2="373" y2="636" stroke="#786c60" stroke-width="7" stroke-linecap="round"/>
<line x1="387" y1="636" x2="429" y2="636" stroke="#786c60" stroke-width="7" stroke-linecap="round"/>
<line x1="443" y1="636" x2="474" y2="636" stroke="#786c60" stroke-width="7" stroke-linecap="round"/>
<line x1="488" y1="636" x2="542" y2="636" stroke="#786c60" stroke-width="7" stroke-linecap="round"/>
<line x1="556" y1="636" x2="599" y2="636" stroke="#786c60" stroke-width="7" stroke-linecap="round"/>
<line x1="668" y1="420" x2="720" y2="420" stroke="#786c60" stroke-width="7" stroke-linecap="round"/>
<line x1="668" y1="470" x2="720" y2="470" stroke="#786c60" stroke-width="7" stroke-linecap="round"/>
<line x1="668" y1="590" x2="740" y2="590" stroke="#786c60" stroke-width="7" stroke-linecap="round"/>
<line x1="668" y1="630" x2="730" y2="630" stroke="#786c60" stroke-width="7" stroke-linecap="round"/>
<path d="M244,677 L228.0,630.0 L248.0,594.0 L232.0,556.0 L252.0,520.0 L230.0,482.0 L250.0,446.0 L228.0,410.0 L246.0,380.0 L232.0,347.0 L792,347 L792,677 Z M746,512 A30,30 0 1 0 745.9,512 Z" fill="none" stroke="#2a2a2e" stroke-width="11" stroke-linejoin="round"/>
</g>
</g>
</svg>
